<svg class="logo-color" xmlns="http://www.w3.org/2000/svg" xml:space="preserve" width="111.411mm" height="96.7653mm" version="1.1" style="shape-rendering: geometricprecision; text-rendering: geometricprecision; fill-rule: evenodd; clip-rule: evenodd; opacity: 0;" viewBox="0 0 110449 95930" xmlns:xlink="http://www.w3.org/1999/xlink">
						<defs>
							<linearGradient id="prograffing">
								<stop offset="5%" stop-color="#e4f3fa"></stop>

								<stop offset="95%" stop-color="#6dc5cd"></stop>

							</linearGradient>
						</defs>
						<g id="Layer_x0020_1">
							<metadata id="CorelCorpID_0Corel-Layer"></metadata>
							<path fill="url(#prograffing)" d="M0 47964c0,26688 21410,48081 48443,47965 8469,0 21593,-3481 27643,-9099 6331,-5879 3490,-35957 -2725,-31160 -3888,3003 -13119,7338 -26736,2910 -9737,-399 -104,26171 -104,26171 -17615,1807 -22693,-3098 -22531,-16074 65,-13795 188,-27648 254,-41444 0,-2217 -265,-6028 3684,-7583 450,-177 879,299 656,728 -691,1330 -611,2881 160,2354 2748,-2820 13169,-6083 21464,-5754 13407,532 20553,5756 26208,15348 706,781 1933,781 2640,0l6907 -13642c-8850,-11155 -22181,-18684 -37527,-18684 -26638,0 -48436,21228 -48436,47964zm89178 -18351l3803 0c533,0 968,434 968,966l0 3794c0,531 -435,965 -968,965l-3803 0c-533,0 -969,-434 -969,-965l0 -3794c0,-532 436,-966 969,-966zm11398 6671l4851 0c680,0 1236,554 1236,1232l0 4839c0,678 -556,1232 -1236,1232l-4851 0c-679,0 -1235,-554 -1235,-1232l0 -4839c0,-678 556,-1232 1235,-1232zm-11794 9863l8486 0c1188,0 2160,972 2160,2160l0 8486c0,1189 -972,2161 -2160,2161l-8486 0c-1188,0 -2160,-972 -2160,-2161l0 -8486c0,-1188 972,-2160 2160,-2160zm13390 14271l6597 0c924,0 1680,755 1680,1679l0 6598c0,924 -756,1680 -1680,1680l-6597 0c-924,0 -1680,-756 -1680,-1680l0 -6598c0,-924 756,-1679 1680,-1679zm-15713 12435l11184 0c1566,0 2847,1281 2847,2848l0 11184c0,1566 -1281,2847 -2847,2847l-11184 0c-1566,0 -2848,-1281 -2848,-2847l0 -11184c0,-1567 1282,-2848 2848,-2848z"></path>
						</g>
					</svg>